HIERARCHY
ROOT pelvis
{
  OFFSET 0 100 0
  CHANNELS 6 Xposition Yposition Zposition Zrotation Xrotation Yrotation
  JOINT pelvis_right_femur
  {
    OFFSET -10.78128 -3.44521 -0.5502486
    CHANNELS 3 Zrotation Xrotation Yrotation
    JOINT right_femur_tibia
    {
      OFFSET -0.8047443 -44.0398 -0.1307829
      CHANNELS 3 Zrotation Xrotation Yrotation
      JOINT right_tibia_foot
      {
        OFFSET 3.006224 -47.83518 -5
        CHANNELS 3 Zrotation Xrotation Yrotation
        End Site
        {
          OFFSET 0 -5 15
        }
      }
    }
  }
  JOINT pelvis_left_femur
  {
    OFFSET 10.78128 -3.44521 -0.5502486
    CHANNELS 3 Zrotation Xrotation Yrotation
    JOINT left_femur_tibia
    {
      OFFSET 0.8047443 -44.0398 -0.1307829
      CHANNELS 3 Zrotation Xrotation Yrotation
      JOINT left_tibia_foot
      {
        OFFSET -4.370144 -48.10324 -4.275266
        CHANNELS 3 Zrotation Xrotation Yrotation
        End Site
        {
          OFFSET 0 -5 15
        }
      }
    }
  }
  JOINT pelvis_spine1
  {
    OFFSET 0 6.468898 -3.129235
    CHANNELS 3 Zrotation Xrotation Yrotation
    JOINT spine1
    {
      OFFSET 0 23.15396 4.99043
      CHANNELS 3 Zrotation Xrotation Yrotation
      JOINT spine2
      {
        OFFSET 0 20.79997 -5.064912
        CHANNELS 3 Zrotation Xrotation Yrotation
        JOINT neck
        {
          OFFSET 0 14.38658 9.616178
          CHANNELS 3 Zrotation Xrotation Yrotation
          End Site
          {
            OFFSET 0 20 0
          }
        }
      }
      JOINT right_manubrium
      {
        OFFSET -5.722621 16.35077 3.967754
        CHANNELS 3 Zrotation Xrotation Yrotation
        JOINT right_clavicle
        {
          OFFSET -13.16364 1.694482 -4.693211
          CHANNELS 3 Zrotation Xrotation Yrotation
          JOINT right_humerus
          {
            OFFSET -28.5034 -0.3100689 -2.792744
            CHANNELS 3 Zrotation Xrotation Yrotation
            JOINT right_radius
            {
              OFFSET -25.15693 0.02248979 -1.271978
              CHANNELS 3 Zrotation Xrotation Yrotation
              End Site
              {
                OFFSET -15 0 0
              }
            }
          }
        }
      }
      JOINT left_manubrium
      {
        OFFSET 5.722621 16.35077 3.967754
        CHANNELS 3 Zrotation Xrotation Yrotation
        JOINT left_clavicle
        {
          OFFSET 13.16364 1.694482 -4.693211
          CHANNELS 3 Zrotation Xrotation Yrotation
          JOINT left_humerus
          {
            OFFSET 29.39168 -1.063119 -2.237045
            CHANNELS 3 Zrotation Xrotation Yrotation
            JOINT left_radius
            {
              OFFSET 24.59957 -0.9528479 0.9047498
              CHANNELS 3 Zrotation Xrotation Yrotation
              End Site
              {
                OFFSET 15 -0 -0
              }
            }
          }
        }
      }
    }
  }
}
MOTION
Frames: 19
Frame Time: 0.0416666666667
0 103.5113 0 1.802889 -0.2438268 -0.2006443 3.247488 -13.78414 9.859148 -0 36.62912 -0 -5.071054 -20.07071 -2.159469 -7.908419 10.03075 -24.14779 -0 4.950144 -0 16.78351 -10.8555 28.64123 -2.487255 -2.71607 4.873377 2.817014 9.54425 -7.817734 1.173426 20.61572 7.229766 3.755945 -25.98645 9.423241 5.668531 -19.32286 11.23623 85.88965 35.12527 -18.98075 -0 0 15.62621 -8.561853 8.857424 4.439267 7.018631 -21.01027 -0.4175897 -93.33814 21.48118 21.63429 0 0 -13.63381 13.04858 14.9361 -1.377155
0.3854634 103.6015 1.366884 1.428254 0.6385955 -0.4301003 4.023871 -16.52385 10.07101 -0 35.93118 -0 -5.091958 -18.91387 -2.088535 -7.846456 10.03917 -23.97002 -0 4.811589 -0 16.19175 -12.37922 28.52907 -2.407252 -2.541225 4.702071 2.866666 9.525243 -8.002617 1.192908 20.3059 7.436927 3.948199 -26.29849 9.519078 5.677466 -19.1264 11.3132 86.1842 35.19854 -19.3591 -0 0 15.36253 -8.6846 9.10206 4.423596 7.227581 -21.15071 -0.2661937 -92.93026 21.30138 20.81709 0 0 -14.42877 13.09317 14.68666 -1.612277
0.6886513 103.4529 2.893932 0.8380058 0.3425889 -0.5127148 3.937716 -19.18267 8.633188 -0 34.94327 -0 -5.936912 -15.81777 -2.76261 -7.173144 11.14799 -23.11777 -0 4.710018 -0 10.51017 -16.67496 26.46789 -2.211521 -2.355991 4.603522 2.953365 9.532703 -8.134136 1.258045 20.1318 7.415284 3.953651 -26.54251 9.515348 5.684189 -18.83455 11.35617 86.38308 35.13362 -19.76503 -0 0 14.80243 -8.724361 9.427983 4.576505 7.253024 -21.22233 -0.2107668 -92.63327 21.69631 20.25374 0 0 -15.44054 12.59502 14.51217 -0.9421467
0.9523086 103.3473 4.340052 0.5782486 0.7857848 -0.6022354 4.468518 -20.46891 9.184484 -0 35.10832 -0 -5.789063 -15.64548 -3.073147 -7.049187 11.34971 -23.32975 -0 4.995565 -0 9.180554 -17.97172 26.30362 -2.077534 -2.189801 4.498105 3.01592 9.546082 -8.274871 1.278609 19.92841 7.485186 4.029864 -26.73464 9.514009 5.657363 -18.63104 11.4165 86.60751 35.08311 -20.10189 -0 0 14.40235 -8.874616 9.688788 4.695208 7.328862 -21.3325 -0.1520663 -92.28843 21.75512 19.66225 0 0 -16.2711 12.32811 14.26658 -0.6764738
1.204658 103.128 5.933375 0.196313 1.553257 -0.6430268 5.118913 -23.39088 9.190539 -0 33.36271 -0 -5.594971 -14.32096 -3.19246 -6.837099 11.33254 -22.64547 -0 4.924037 -0 7.986842 -19.53631 25.33236 -1.932979 -2.03897 4.401429 3.078381 9.551478 -8.409296 1.312387 19.72827 7.5282 4.093234 -26.89904 9.501875 5.672766 -18.39738 11.4601 86.79407 35.05592 -20.4706 -0 0 13.9706 -8.98247 9.980245 4.810793 7.415265 -21.45155 -0.1047613 -91.96909 21.92215 19.09461 0 0 -17.18617 11.98727 14.06027 -0.2458885
1.443403 102.7511 7.7718 -0.133197 2.214901 -0.6227559 5.628352 -26.22687 8.912584 -0 30.98071 -0 -5.46861 -12.73889 -3.205789 -6.611443 11.39855 -21.75793 -0 4.985154 -0 6.903921 -20.88358 24.18538 -1.804303 -1.892124 4.312361 3.134538 9.569689 -8.542263 1.32403 19.53589 7.58692 4.164065 -27.02114 9.470086 5.653426 -18.20192 11.5119 86.99138 34.99615 -20.80205 -0 0 13.57314 -9.162308 10.24496 4.94735 7.492164 -21.58117 -0.0750358 -91.62767 21.97144 18.54423 0 0 -18.02862 11.68744 13.8059 0.09083854
1.657252 102.2372 9.913984 -0.4875778 3.012465 -0.5401455 6.280983 -29.24668 8.643106 -0 27.98067 -0 -5.464131 -10.94756 -3.048557 -6.377062 11.56672 -20.8957 -0 5.439943 -0 5.909441 -22.19239 23.06281 -1.674642 -1.749534 4.234735 3.187854 9.596905 -8.670253 1.328641 19.35655 7.633215 4.225233 -27.10091 9.413886 5.626882 -18.01195 11.56239 87.18007 34.91339 -21.12508 -0 0 13.16814 -9.374301 10.50952 5.106931 7.554663 -21.71657 -0.06822654 -91.28376 22.01275 18.02185 0 0 -18.86307 11.35469 13.53338 0.4786755
1.827531 101.5786 12.48944 -0.8539114 3.71778 -0.3710162 6.875225 -32.25467 8.002474 -0 24.20193 -0 -5.724114 -8.611522 -2.695072 -6.075777 12.01903 -19.8837 -0 6.462358 -0 4.489529 -23.54043 21.60892 -1.551373 -1.608522 4.165413 3.238325 9.637346 -8.795402 1.319371 19.19189 7.676286 4.27968 -27.13862 9.333865 5.575803 -17.83982 11.61626 87.37314 34.79069 -21.42782 -0 0 12.766 -9.641389 10.75934 5.294245 7.597583 -21.85584 -0.0857503 -90.9243 21.99897 17.5173 0 0 -19.65724 11.01431 13.22205 0.8591858
1.931394 100.8107 15.65071 -1.227207 4.216624 -0.07910266 7.321444 -34.82757 6.907947 -0 19.8689 -0 -6.329802 -5.873626 -2.168981 -5.677722 12.86816 -18.76302 -0 8.351906 -0 2.298679 -24.8119 19.6492 -1.431011 -1.469091 4.107084 3.285602 9.692647 -8.914938 1.29944 19.04843 7.705298 4.319686 -27.12723 9.225329 5.506074 -17.67857 11.67086 87.56387 34.62382 -21.71243 -0 0 12.35871 -9.957523 10.99772 5.512593 7.613229 -21.99418 -0.1340753 -90.55653 21.95778 17.04088 0 0 -20.41082 10.64302 12.87702 1.275457
1.952225 100.0247 19.57564 -1.580292 4.377325 0.3797241 7.499209 -36.27771 5.33928 -0 15.48334 -0 -7.244123 -3.15173 -1.599219 -5.162525 14.14435 -17.51153 -0 11.41779 -0 -0.873383 -25.57847 16.95578 -1.316888 -1.331806 4.060028 3.328492 9.764671 -9.026561 1.268492 18.93226 7.717831 4.341837 -27.06271 9.088025 5.415654 -17.53117 11.72552 87.75077 34.40509 -21.97088 -0 0 11.95282 -10.32426 11.21716 5.762415 7.595071 -22.1253 -0.2168452 -90.18345 21.8864 16.59853 0 0 -21.09947 10.24301 12.49687 1.722232
1.901029 99.39547 24.38786 -1.893783 4.189331 1.024065 7.488609 -35.74279 3.815546 -0 12.30051 -0 -8.090989 -1.413618 -1.384791 -4.538366 15.52944 -16.14714 -0 15.81435 -0 -4.690303 -24.93634 13.57496 -1.211398 -1.199324 4.029603 3.36343 9.855682 -9.121936 1.228674 18.85768 7.702852 4.337023 -26.93573 8.919885 5.309073 -17.40141 11.7775 87.92039 34.13137 -22.18461 -0 0 11.56317 -10.73198 11.40764 6.04229 7.529403 -22.23521 -0.3403212 -89.82449 21.80249 16.22168 0 0 -21.67463 9.807872 12.09293 2.216011
1.827821 99.10424 30.03558 -2.170994 3.800575 1.755813 7.56442 -32.99658 3.336492 -0 11.83861 -0 -8.149948 -1.518023 -2.022378 -3.875561 16.24093 -14.66793 -0 21.36262 -0 -7.836385 -21.79782 10.17974 -1.119965 -1.074524 4.026263 3.384104 9.970345 -9.185049 1.181553 18.85083 7.643862 4.290547 -26.73464 8.718389 5.188173 -17.3036 11.82485 88.04967 33.79658 -22.3094 -0 0 11.22382 -11.16742 11.54499 6.351408 7.389185 -22.29652 -0.512517 -89.51492 21.72379 15.97248 0 0 -22.0344 9.33599 11.6825 2.763535
1.766653 99.17013 36.28898 -2.409473 3.20487 2.279458 7.829344 -29.25369 4.095642 -0 13.77888 -0 -7.29617 -2.603778 -3.235071 -3.294709 15.6782 -13.02981 -0 28.35851 -0 -8.917336 -16.2174 7.84462 -1.048536 -0.9576251 4.063682 3.381622 10.11245 -9.194756 1.129561 18.93919 7.523256 4.188563 -26.44911 8.480724 5.057198 -17.2549 11.86667 88.10561 33.40216 -22.28478 -0 0 10.97878 -11.61729 11.60372 6.692601 7.145351 -22.27612 -0.7380013 -89.29558 21.6736 15.92331 0 0 -22.0676 8.821948 11.28521 3.376251
1.687484 99.61483 42.81393 -2.680665 2.147227 2.265732 8.397007 -25.40741 4.879133 -0 15.75641 -0 -7.179616 -2.901373 -3.741976 -2.780216 13.45647 -11.46821 -0 38.46219 -0 -8.254526 -10.16949 7.315056 -1.003924 -0.8444415 4.149185 3.347795 10.2779 -9.136347 1.07492 19.12705 7.340273 4.033972 -26.08027 8.208752 4.920688 -17.26474 11.90364 88.06172 32.96521 -22.06501 -0 0 10.85998 -12.08417 11.57638 7.073669 6.795891 -22.15873 -1.007521 -89.17888 21.66028 16.09477 0 0 -21.74763 8.264025 10.90658 4.053963
1.608594 100.6813 49.05591 -3.025271 1.019658 1.717444 9.110627 -20.47221 4.758561 -0 16.58274 -0 -9.242583 -3.534965 -2.812218 -2.285511 8.27493 -10.74289 -0 50.69354 -0 -7.904554 -5.957822 8.081294 -0.998633 -0.7297739 4.290185 3.273332 10.4594 -8.994427 1.016689 19.41119 7.103486 3.835933 -25.6323 7.905479 4.768233 -17.35037 11.93746 87.89551 32.49466 -21.59479 -0 0 10.90229 -12.59319 11.45329 7.512827 6.348991 -21.93574 -1.305037 -89.16076 21.66828 16.48699 0 0 -21.07707 7.668955 10.5359 4.771912
1.617608 102.2026 54.72253 -2.656372 -0.1911042 0.962912 8.629053 -14.3571 3.577784 -0 15.36728 -0 -11.01017 -5.351103 -1.589692 -2.282608 0.8882012 -10.21659 -0 59.92711 -0 -8.48248 -4.550715 8.604771 -1.053951 -0.6073338 4.506179 3.140118 10.65342 -8.740192 0.9497768 19.79716 6.819301 3.598677 -25.09484 7.567108 4.560518 -17.55575 11.96957 87.57523 31.96421 -20.76756 -0 0 11.17151 -13.209 11.20692 8.054469 5.803751 -21.58859 -1.614237 -89.23613 21.66116 17.1218 0 0 -20.02652 7.039149 10.13903 5.496915
1.703596 103.5853 60.09895 -1.219864 -2.372173 0.2745601 6.875413 -7.55169 2.69362 -0 12.75185 -0 -9.888681 -6.772609 -1.463806 -2.489637 -6.574078 -8.631285 -0 63.73677 -0 -7.717242 -4.522389 9.52106 -1.175156 -0.4748163 4.808638 2.927939 10.8402 -8.362509 0.8796338 20.24141 6.511043 3.352785 -24.45596 7.19525 4.297787 -17.88849 11.9951 87.06756 31.40114 -19.54545 -0 0 11.70963 -13.99466 10.88092 8.730783 5.219352 -21.14161 -1.902197 -89.37112 21.63636 17.94293 0 0 -18.74908 6.354069 9.691612 6.267008
1.788309 104.4807 65.34414 0.1920268 -4.294003 -0.2194527 5.196907 -1.189053 2.483896 -0 10.36204 -0 -8.007779 -8.231121 -1.573766 -2.086152 -13.52582 -7.001474 -0 61.76203 -0 -6.038974 -4.61869 11.35911 -1.351968 -0.3462094 5.202259 2.626775 10.9838 -7.864192 0.8200043 20.68446 6.204411 3.134355 -23.72926 6.808987 4.020096 -18.33799 12.00693 86.33 30.89301 -17.93944 -0 0 12.55501 -14.94474 10.54324 9.525736 4.676797 -20.63315 -2.125695 -89.56035 21.62396 18.90062 0 0 -17.43214 5.622154 9.230948 7.112401
1.826543 104.6958 70.50687 0.817601 -5.435467 -0.6845988 4.453962 4.338361 2.410106 -0 8.658066 -0 -6.90878 -10.34693 -1.550426 -0.8445356 -19.03716 -5.675862 -0 54.68597 -0 -5.172935 -5.040042 14.00849 -1.568738 -0.2447866 5.690743 2.237684 11.05623 -7.255501 0.7774985 21.08381 5.922483 2.961333 -22.95218 6.438575 3.718695 -18.93324 11.99932 85.35144 30.46241 -15.94862 -0 0 13.76589 -16.03848 10.2177 10.4115 4.230755 -20.0876 -2.243659 -89.8227 21.61417 19.99714 0 0 -16.15816 4.903476 8.795819 7.96628
